<mxfile host="app.diagrams.net" modified="2021-03-03T16:41:08.787Z" agent="5.0 (Windows NT 10.0; Win64; x64) AppleWebKit/537.36 (KHTML, like Gecko) Chrome/88.0.4324.182 Safari/537.36 Edg/88.0.705.81" etag="V_iJi6Id3DuRi8BYb64e" version="14.4.3" type="github">
  <diagram id="RbLjyeAD4zGmAkxlHviI" name="Page-1">
    <mxGraphModel dx="1038" dy="1725" grid="1" gridSize="10" guides="1" tooltips="1" connect="1" arrows="1" fold="1" page="1" pageScale="1" pageWidth="827" pageHeight="1169" math="0" shadow="0">
      <root>
        <mxCell id="0" />
        <mxCell id="1" parent="0" />
        <mxCell id="w1o4nE-uoXKEgXRbYHzc-1" value="&lt;b style=&quot;text-align: justify&quot;&gt;SPORT COMPLEXE&lt;/b&gt;&lt;span&gt;&amp;nbsp;&lt;/span&gt;&lt;b style=&quot;text-align: justify&quot;&gt;&lt;br&gt;&lt;/b&gt;" style="whiteSpace=wrap;html=1;align=center;strokeWidth=2;fontStyle=1" parent="1" vertex="1">
          <mxGeometry x="200" y="90" width="90" height="30" as="geometry" />
        </mxCell>
        <mxCell id="w1o4nE-uoXKEgXRbYHzc-2" value="ONE_SPORT" style="whiteSpace=wrap;html=1;align=center;strokeWidth=2;fontStyle=1" parent="1" vertex="1">
          <mxGeometry x="70" y="240" width="90" height="30" as="geometry" />
        </mxCell>
        <mxCell id="w1o4nE-uoXKEgXRbYHzc-3" value="MULTISPORT" style="whiteSpace=wrap;html=1;align=center;strokeWidth=2;fontStyle=1" parent="1" vertex="1">
          <mxGeometry x="290" y="240" width="90" height="30" as="geometry" />
        </mxCell>
        <mxCell id="w1o4nE-uoXKEgXRbYHzc-5" value="&lt;br&gt;&lt;br&gt;&lt;br&gt;&lt;span class=&quot;fontstyle0&quot;&gt;Location indicator&lt;/span&gt; &lt;br&gt;&lt;br style=&quot;font-style: normal ; font-variant: normal ; font-weight: normal ; letter-spacing: normal ; line-height: normal ; text-indent: 0px ; text-transform: none ; word-spacing: 0px&quot;&gt;&lt;br&gt;&lt;br&gt;" style="ellipse;whiteSpace=wrap;html=1;align=center;strokeWidth=2;" parent="1" vertex="1">
          <mxGeometry x="320" y="420" width="80" height="30" as="geometry" />
        </mxCell>
        <mxCell id="w1o4nE-uoXKEgXRbYHzc-6" value="&lt;br&gt;&lt;span class=&quot;fontstyle0&quot;&gt;Location&amp;nbsp;&lt;/span&gt;&lt;br&gt;&lt;br style=&quot;font-style: normal ; font-variant: normal ; font-weight: normal ; letter-spacing: normal ; line-height: normal ; text-indent: 0px ; text-transform: none ; word-spacing: 0px&quot;&gt;" style="ellipse;whiteSpace=wrap;html=1;align=center;strokeWidth=2;" parent="1" vertex="1">
          <mxGeometry x="90" y="50" width="80" height="30" as="geometry" />
        </mxCell>
        <mxCell id="w1o4nE-uoXKEgXRbYHzc-8" value="TotalArea" style="ellipse;whiteSpace=wrap;html=1;align=center;strokeWidth=2;" parent="1" vertex="1">
          <mxGeometry x="320" y="50" width="80" height="30" as="geometry" />
        </mxCell>
        <mxCell id="w1o4nE-uoXKEgXRbYHzc-9" value="EVENT" style="whiteSpace=wrap;html=1;align=center;strokeWidth=2;fontStyle=1" parent="1" vertex="1">
          <mxGeometry x="594" y="130" width="90" height="30" as="geometry" />
        </mxCell>
        <mxCell id="w1o4nE-uoXKEgXRbYHzc-10" value="Planned Date" style="ellipse;whiteSpace=wrap;html=1;align=center;strokeWidth=2;" parent="1" vertex="1">
          <mxGeometry x="760" y="130" width="80" height="30" as="geometry" />
        </mxCell>
        <mxCell id="w1o4nE-uoXKEgXRbYHzc-11" value="Duration" style="ellipse;whiteSpace=wrap;html=1;align=center;strokeWidth=2;" parent="1" vertex="1">
          <mxGeometry x="747" y="170" width="80" height="30" as="geometry" />
        </mxCell>
        <mxCell id="w1o4nE-uoXKEgXRbYHzc-14" value="EQUIPMENT" style="whiteSpace=wrap;html=1;align=center;strokeWidth=2;fontStyle=1" parent="1" vertex="1">
          <mxGeometry x="590" y="270" width="90" height="30" as="geometry" />
        </mxCell>
        <mxCell id="w1o4nE-uoXKEgXRbYHzc-19" value="Goal Sports" style="whiteSpace=wrap;html=1;align=center;strokeWidth=2;" parent="1" vertex="1">
          <mxGeometry x="510" y="420" width="70" height="30" as="geometry" />
        </mxCell>
        <mxCell id="w1o4nE-uoXKEgXRbYHzc-20" value="Paralell bars" style="whiteSpace=wrap;html=1;align=center;strokeWidth=2;" parent="1" vertex="1">
          <mxGeometry x="690" y="420" width="70" height="30" as="geometry" />
        </mxCell>
        <mxCell id="w1o4nE-uoXKEgXRbYHzc-21" value="Poles" style="whiteSpace=wrap;html=1;align=center;strokeWidth=2;" parent="1" vertex="1">
          <mxGeometry x="603" y="445" width="70" height="30" as="geometry" />
        </mxCell>
        <mxCell id="w1o4nE-uoXKEgXRbYHzc-23" value="Type&amp;nbsp;" style="ellipse;whiteSpace=wrap;html=1;align=center;strokeWidth=2;" parent="1" vertex="1">
          <mxGeometry x="170" y="420" width="80" height="30" as="geometry" />
        </mxCell>
        <mxCell id="w1o4nE-uoXKEgXRbYHzc-26" value="OFFICIALS" style="whiteSpace=wrap;html=1;align=center;strokeWidth=2;fontStyle=1" parent="1" vertex="1">
          <mxGeometry x="540" y="-130" width="90" height="30" as="geometry" />
        </mxCell>
        <mxCell id="w1o4nE-uoXKEgXRbYHzc-27" value="" style="endArrow=none;html=1;rounded=0;entryX=1;entryY=0.5;entryDx=0;entryDy=0;exitX=0.25;exitY=0;exitDx=0;exitDy=0;" parent="1" source="w1o4nE-uoXKEgXRbYHzc-1" target="w1o4nE-uoXKEgXRbYHzc-6" edge="1">
          <mxGeometry relative="1" as="geometry">
            <mxPoint x="330" y="210" as="sourcePoint" />
            <mxPoint x="490" y="210" as="targetPoint" />
          </mxGeometry>
        </mxCell>
        <mxCell id="w1o4nE-uoXKEgXRbYHzc-29" value="" style="endArrow=none;html=1;rounded=0;entryX=0.5;entryY=0;entryDx=0;entryDy=0;exitX=0;exitY=0.5;exitDx=0;exitDy=0;" parent="1" source="w1o4nE-uoXKEgXRbYHzc-8" target="w1o4nE-uoXKEgXRbYHzc-1" edge="1">
          <mxGeometry relative="1" as="geometry">
            <mxPoint x="241.58999999999992" y="100.80999999999995" as="sourcePoint" />
            <mxPoint x="200" y="40" as="targetPoint" />
          </mxGeometry>
        </mxCell>
        <mxCell id="w1o4nE-uoXKEgXRbYHzc-39" value="" style="endArrow=none;html=1;rounded=0;entryX=0.5;entryY=1;entryDx=0;entryDy=0;exitX=0.5;exitY=0;exitDx=0;exitDy=0;" parent="1" source="ttCvUygym4jiZelkRWhz-47" target="w1o4nE-uoXKEgXRbYHzc-3" edge="1">
          <mxGeometry relative="1" as="geometry">
            <mxPoint x="279" y="320" as="sourcePoint" />
            <mxPoint x="255.6500000000001" y="205.6500000000001" as="targetPoint" />
          </mxGeometry>
        </mxCell>
        <mxCell id="w1o4nE-uoXKEgXRbYHzc-41" value="" style="endArrow=none;html=1;rounded=0;entryX=0.5;entryY=1;entryDx=0;entryDy=0;exitX=0.5;exitY=0;exitDx=0;exitDy=0;" parent="1" source="w1o4nE-uoXKEgXRbYHzc-23" target="ttCvUygym4jiZelkRWhz-47" edge="1">
          <mxGeometry relative="1" as="geometry">
            <mxPoint x="424" y="330" as="sourcePoint" />
            <mxPoint x="279" y="350" as="targetPoint" />
          </mxGeometry>
        </mxCell>
        <mxCell id="w1o4nE-uoXKEgXRbYHzc-42" value="" style="endArrow=none;html=1;rounded=0;exitX=0.5;exitY=0;exitDx=0;exitDy=0;entryX=0.5;entryY=1;entryDx=0;entryDy=0;" parent="1" source="w1o4nE-uoXKEgXRbYHzc-5" target="ttCvUygym4jiZelkRWhz-47" edge="1">
          <mxGeometry relative="1" as="geometry">
            <mxPoint x="220" y="430" as="sourcePoint" />
            <mxPoint x="280" y="350" as="targetPoint" />
          </mxGeometry>
        </mxCell>
        <mxCell id="w1o4nE-uoXKEgXRbYHzc-44" value="" style="endArrow=none;html=1;rounded=0;entryX=1;entryY=1;entryDx=0;entryDy=0;exitX=0.5;exitY=0;exitDx=0;exitDy=0;" parent="1" source="w1o4nE-uoXKEgXRbYHzc-20" target="w1o4nE-uoXKEgXRbYHzc-73" edge="1">
          <mxGeometry relative="1" as="geometry">
            <mxPoint x="740" y="445" as="sourcePoint" />
            <mxPoint x="650.6500000000001" y="400.6500000000001" as="targetPoint" />
          </mxGeometry>
        </mxCell>
        <mxCell id="w1o4nE-uoXKEgXRbYHzc-45" value="" style="endArrow=none;html=1;rounded=0;exitX=0.5;exitY=0;exitDx=0;exitDy=0;entryX=0;entryY=1;entryDx=0;entryDy=0;" parent="1" source="w1o4nE-uoXKEgXRbYHzc-19" target="w1o4nE-uoXKEgXRbYHzc-73" edge="1">
          <mxGeometry relative="1" as="geometry">
            <mxPoint x="520" y="445" as="sourcePoint" />
            <mxPoint x="629" y="390" as="targetPoint" />
          </mxGeometry>
        </mxCell>
        <mxCell id="w1o4nE-uoXKEgXRbYHzc-46" value="" style="endArrow=none;html=1;rounded=0;entryX=0.533;entryY=0.967;entryDx=0;entryDy=0;exitX=0.5;exitY=0;exitDx=0;exitDy=0;entryPerimeter=0;" parent="1" source="w1o4nE-uoXKEgXRbYHzc-21" target="w1o4nE-uoXKEgXRbYHzc-73" edge="1">
          <mxGeometry relative="1" as="geometry">
            <mxPoint x="758" y="475" as="sourcePoint" />
            <mxPoint x="640" y="405" as="targetPoint" />
          </mxGeometry>
        </mxCell>
        <mxCell id="w1o4nE-uoXKEgXRbYHzc-47" value="" style="endArrow=none;html=1;rounded=0;entryX=0.5;entryY=1;entryDx=0;entryDy=0;exitX=0.5;exitY=0;exitDx=0;exitDy=0;exitPerimeter=0;" parent="1" source="w1o4nE-uoXKEgXRbYHzc-73" target="w1o4nE-uoXKEgXRbYHzc-14" edge="1">
          <mxGeometry relative="1" as="geometry">
            <mxPoint x="640" y="375" as="sourcePoint" />
            <mxPoint x="650" y="415" as="targetPoint" />
          </mxGeometry>
        </mxCell>
        <mxCell id="w1o4nE-uoXKEgXRbYHzc-49" value="" style="endArrow=none;html=1;rounded=0;entryX=0;entryY=0.5;entryDx=0;entryDy=0;exitX=1;exitY=0.5;exitDx=0;exitDy=0;" parent="1" source="w1o4nE-uoXKEgXRbYHzc-9" target="w1o4nE-uoXKEgXRbYHzc-10" edge="1">
          <mxGeometry relative="1" as="geometry">
            <mxPoint x="680" y="105" as="sourcePoint" />
            <mxPoint x="885.2" y="120" as="targetPoint" />
          </mxGeometry>
        </mxCell>
        <mxCell id="w1o4nE-uoXKEgXRbYHzc-50" value="" style="endArrow=none;html=1;rounded=0;entryX=0;entryY=0.5;entryDx=0;entryDy=0;exitX=1;exitY=0.5;exitDx=0;exitDy=0;" parent="1" source="w1o4nE-uoXKEgXRbYHzc-9" target="w1o4nE-uoXKEgXRbYHzc-11" edge="1">
          <mxGeometry relative="1" as="geometry">
            <mxPoint x="680" y="105" as="sourcePoint" />
            <mxPoint x="655.2" y="40" as="targetPoint" />
          </mxGeometry>
        </mxCell>
        <mxCell id="w1o4nE-uoXKEgXRbYHzc-54" value="Budget" style="ellipse;whiteSpace=wrap;html=1;align=center;strokeWidth=2;" parent="1" vertex="1">
          <mxGeometry x="60" y="100" width="80" height="30" as="geometry" />
        </mxCell>
        <mxCell id="w1o4nE-uoXKEgXRbYHzc-55" value="Facilities" style="ellipse;whiteSpace=wrap;html=1;align=center;strokeWidth=2;" parent="1" vertex="1">
          <mxGeometry x="80" y="150" width="80" height="30" as="geometry" />
        </mxCell>
        <mxCell id="w1o4nE-uoXKEgXRbYHzc-56" value="" style="endArrow=none;html=1;rounded=0;exitX=1;exitY=0;exitDx=0;exitDy=0;entryX=0;entryY=0.25;entryDx=0;entryDy=0;" parent="1" source="w1o4nE-uoXKEgXRbYHzc-55" target="w1o4nE-uoXKEgXRbYHzc-1" edge="1">
          <mxGeometry relative="1" as="geometry">
            <mxPoint x="315" y="80" as="sourcePoint" />
            <mxPoint x="200" y="100" as="targetPoint" />
          </mxGeometry>
        </mxCell>
        <mxCell id="w1o4nE-uoXKEgXRbYHzc-59" value="" style="endArrow=none;html=1;rounded=0;entryX=0;entryY=0.25;entryDx=0;entryDy=0;exitX=1;exitY=0;exitDx=0;exitDy=0;" parent="1" source="w1o4nE-uoXKEgXRbYHzc-54" target="w1o4nE-uoXKEgXRbYHzc-1" edge="1">
          <mxGeometry relative="1" as="geometry">
            <mxPoint x="140" y="170" as="sourcePoint" />
            <mxPoint x="85" y="100" as="targetPoint" />
          </mxGeometry>
        </mxCell>
        <mxCell id="w1o4nE-uoXKEgXRbYHzc-62" value="has" style="shape=rhombus;perimeter=rhombusPerimeter;whiteSpace=wrap;html=1;align=center;strokeWidth=2;" parent="1" vertex="1">
          <mxGeometry x="260" width="90" height="30" as="geometry" />
        </mxCell>
        <mxCell id="w1o4nE-uoXKEgXRbYHzc-63" value="needs" style="shape=rhombus;perimeter=rhombusPerimeter;whiteSpace=wrap;html=1;align=center;strokeWidth=2;" parent="1" vertex="1">
          <mxGeometry x="591" y="200" width="90" height="30" as="geometry" />
        </mxCell>
        <mxCell id="w1o4nE-uoXKEgXRbYHzc-65" value="" style="endArrow=none;html=1;rounded=0;entryX=0.5;entryY=1;entryDx=0;entryDy=0;" parent="1" source="w1o4nE-uoXKEgXRbYHzc-14" target="w1o4nE-uoXKEgXRbYHzc-63" edge="1">
          <mxGeometry relative="1" as="geometry">
            <mxPoint x="645" y="170" as="sourcePoint" />
            <mxPoint x="645" y="130" as="targetPoint" />
          </mxGeometry>
        </mxCell>
        <mxCell id="w1o4nE-uoXKEgXRbYHzc-66" value="" style="endArrow=none;html=1;rounded=0;entryX=1;entryY=0.5;entryDx=0;entryDy=0;exitX=0;exitY=0.5;exitDx=0;exitDy=0;" parent="1" source="w1o4nE-uoXKEgXRbYHzc-26" target="w1o4nE-uoXKEgXRbYHzc-62" edge="1">
          <mxGeometry relative="1" as="geometry">
            <mxPoint x="645" y="170" as="sourcePoint" />
            <mxPoint x="645" y="130" as="targetPoint" />
          </mxGeometry>
        </mxCell>
        <mxCell id="w1o4nE-uoXKEgXRbYHzc-68" value="" style="endArrow=none;html=1;rounded=0;exitX=0.422;exitY=0.027;exitDx=0;exitDy=0;exitPerimeter=0;" parent="1" source="w1o4nE-uoXKEgXRbYHzc-1" edge="1">
          <mxGeometry relative="1" as="geometry">
            <mxPoint x="360" y="-25" as="sourcePoint" />
            <mxPoint x="260" y="15" as="targetPoint" />
          </mxGeometry>
        </mxCell>
        <mxCell id="w1o4nE-uoXKEgXRbYHzc-72" value="d" style="ellipse;whiteSpace=wrap;html=1;aspect=fixed;strokeWidth=2;" parent="1" vertex="1">
          <mxGeometry x="220" y="170" width="30" height="30" as="geometry" />
        </mxCell>
        <mxCell id="w1o4nE-uoXKEgXRbYHzc-74" value="take part in" style="shape=rhombus;perimeter=rhombusPerimeter;whiteSpace=wrap;html=1;align=center;strokeWidth=2;" parent="1" vertex="1">
          <mxGeometry x="610" y="50" width="90" height="30" as="geometry" />
        </mxCell>
        <mxCell id="w1o4nE-uoXKEgXRbYHzc-76" value="" style="endArrow=none;html=1;rounded=0;exitX=0.5;exitY=0;exitDx=0;exitDy=0;entryX=0.5;entryY=1;entryDx=0;entryDy=0;" parent="1" source="w1o4nE-uoXKEgXRbYHzc-74" target="ttCvUygym4jiZelkRWhz-28" edge="1">
          <mxGeometry relative="1" as="geometry">
            <mxPoint x="685" y="30" as="sourcePoint" />
            <mxPoint x="570" y="20" as="targetPoint" />
          </mxGeometry>
        </mxCell>
        <mxCell id="w1o4nE-uoXKEgXRbYHzc-88" value="maintains" style="shape=rhombus;perimeter=rhombusPerimeter;whiteSpace=wrap;html=1;align=center;strokeWidth=2;" parent="1" vertex="1">
          <mxGeometry x="390" y="190" width="90" height="30" as="geometry" />
        </mxCell>
        <mxCell id="w1o4nE-uoXKEgXRbYHzc-89" value="hold" style="shape=rhombus;perimeter=rhombusPerimeter;whiteSpace=wrap;html=1;align=center;strokeWidth=2;" parent="1" vertex="1">
          <mxGeometry x="400" y="120" width="90" height="30" as="geometry" />
        </mxCell>
        <mxCell id="w1o4nE-uoXKEgXRbYHzc-90" value="" style="endArrow=none;html=1;rounded=0;entryX=1;entryY=1;entryDx=0;entryDy=0;exitX=0.347;exitY=0.187;exitDx=0;exitDy=0;exitPerimeter=0;" parent="1" source="w1o4nE-uoXKEgXRbYHzc-88" target="w1o4nE-uoXKEgXRbYHzc-1" edge="1">
          <mxGeometry relative="1" as="geometry">
            <mxPoint x="509.5" y="42.5" as="sourcePoint" />
            <mxPoint x="470" as="targetPoint" />
          </mxGeometry>
        </mxCell>
        <mxCell id="w1o4nE-uoXKEgXRbYHzc-93" value="" style="endArrow=none;html=1;rounded=0;entryX=1;entryY=0.5;entryDx=0;entryDy=0;exitX=0;exitY=0;exitDx=0;exitDy=0;" parent="1" source="w1o4nE-uoXKEgXRbYHzc-89" target="w1o4nE-uoXKEgXRbYHzc-1" edge="1">
          <mxGeometry relative="1" as="geometry">
            <mxPoint x="600" y="185" as="sourcePoint" />
            <mxPoint x="520" y="115" as="targetPoint" />
          </mxGeometry>
        </mxCell>
        <mxCell id="ttCvUygym4jiZelkRWhz-13" value="" style="rounded=0;orthogonalLoop=1;jettySize=auto;html=1;endArrow=none;endFill=0;" parent="1" edge="1">
          <mxGeometry relative="1" as="geometry">
            <mxPoint x="170" y="214" as="sourcePoint" />
            <mxPoint x="220" y="190" as="targetPoint" />
          </mxGeometry>
        </mxCell>
        <mxCell id="ttCvUygym4jiZelkRWhz-14" value="" style="rounded=0;orthogonalLoop=1;jettySize=auto;html=1;endArrow=halfCircle;endFill=0;endSize=6;strokeWidth=1;exitX=0.5;exitY=0;exitDx=0;exitDy=0;" parent="1" source="w1o4nE-uoXKEgXRbYHzc-2" edge="1">
          <mxGeometry relative="1" as="geometry">
            <mxPoint x="430" y="165" as="sourcePoint" />
            <mxPoint x="180" y="210" as="targetPoint" />
          </mxGeometry>
        </mxCell>
        <mxCell id="ttCvUygym4jiZelkRWhz-16" value="" style="rounded=0;orthogonalLoop=1;jettySize=auto;html=1;endArrow=none;endFill=0;" parent="1" edge="1">
          <mxGeometry relative="1" as="geometry">
            <mxPoint x="246" y="191" as="sourcePoint" />
            <mxPoint x="300" y="222" as="targetPoint" />
          </mxGeometry>
        </mxCell>
        <mxCell id="ttCvUygym4jiZelkRWhz-17" value="" style="rounded=0;orthogonalLoop=1;jettySize=auto;html=1;endArrow=halfCircle;endFill=0;endSize=6;strokeWidth=1;" parent="1" edge="1">
          <mxGeometry relative="1" as="geometry">
            <mxPoint x="335" y="240" as="sourcePoint" />
            <mxPoint x="280" y="211" as="targetPoint" />
          </mxGeometry>
        </mxCell>
        <mxCell id="w1o4nE-uoXKEgXRbYHzc-73" value="d" style="ellipse;whiteSpace=wrap;html=1;aspect=fixed;strokeWidth=2;" parent="1" vertex="1">
          <mxGeometry x="623" y="330" width="30" height="30" as="geometry" />
        </mxCell>
        <mxCell id="ttCvUygym4jiZelkRWhz-22" value="" style="verticalLabelPosition=bottom;verticalAlign=top;html=1;shape=mxgraph.basic.arc;startAngle=0.3;endAngle=0.1;rotation=-75;" parent="1" vertex="1">
          <mxGeometry x="629" y="400" width="20" height="20" as="geometry" />
        </mxCell>
        <mxCell id="ttCvUygym4jiZelkRWhz-24" value="" style="verticalLabelPosition=bottom;verticalAlign=top;html=1;shape=mxgraph.basic.arc;startAngle=0.3;endAngle=0.1;rotation=-135;" parent="1" vertex="1">
          <mxGeometry x="680" y="379" width="20" height="20" as="geometry" />
        </mxCell>
        <mxCell id="ttCvUygym4jiZelkRWhz-25" value="" style="verticalLabelPosition=bottom;verticalAlign=top;html=1;shape=mxgraph.basic.arc;startAngle=0.3;endAngle=0.1;rotation=-30;" parent="1" vertex="1">
          <mxGeometry x="571" y="380" width="20" height="20" as="geometry" />
        </mxCell>
        <mxCell id="ttCvUygym4jiZelkRWhz-27" value="PARTICIPANTS" style="whiteSpace=wrap;html=1;align=center;strokeWidth=2;fontStyle=1" parent="1" vertex="1">
          <mxGeometry x="670" y="-130" width="90" height="30" as="geometry" />
        </mxCell>
        <mxCell id="ttCvUygym4jiZelkRWhz-28" value="PERSON" style="whiteSpace=wrap;html=1;align=center;strokeWidth=2;fontStyle=1" parent="1" vertex="1">
          <mxGeometry x="623" y="-20" width="90" height="30" as="geometry" />
        </mxCell>
        <mxCell id="ttCvUygym4jiZelkRWhz-29" value="" style="endArrow=none;html=1;rounded=0;entryX=0.5;entryY=0;entryDx=0;entryDy=0;exitX=1;exitY=1;exitDx=0;exitDy=0;" parent="1" source="ttCvUygym4jiZelkRWhz-34" target="ttCvUygym4jiZelkRWhz-28" edge="1">
          <mxGeometry relative="1" as="geometry">
            <mxPoint x="630" y="-40" as="sourcePoint" />
            <mxPoint x="534" y="-65" as="targetPoint" />
          </mxGeometry>
        </mxCell>
        <mxCell id="ttCvUygym4jiZelkRWhz-30" value="" style="rounded=0;orthogonalLoop=1;jettySize=auto;html=1;endArrow=none;endFill=0;exitX=0.5;exitY=0;exitDx=0;exitDy=0;entryX=0.5;entryY=1;entryDx=0;entryDy=0;" parent="1" source="ttCvUygym4jiZelkRWhz-34" target="w1o4nE-uoXKEgXRbYHzc-26" edge="1">
          <mxGeometry relative="1" as="geometry">
            <mxPoint x="630" y="-60" as="sourcePoint" />
            <mxPoint x="600" y="-90" as="targetPoint" />
          </mxGeometry>
        </mxCell>
        <mxCell id="ttCvUygym4jiZelkRWhz-34" value="d" style="ellipse;whiteSpace=wrap;html=1;aspect=fixed;strokeWidth=2;" parent="1" vertex="1">
          <mxGeometry x="620" y="-70" width="30" height="30" as="geometry" />
        </mxCell>
        <mxCell id="ttCvUygym4jiZelkRWhz-35" value="" style="rounded=0;orthogonalLoop=1;jettySize=auto;html=1;endArrow=none;endFill=0;exitX=0.5;exitY=1;exitDx=0;exitDy=0;" parent="1" source="ttCvUygym4jiZelkRWhz-27" edge="1">
          <mxGeometry relative="1" as="geometry">
            <mxPoint x="634.3933982822018" y="-55.606601717798185" as="sourcePoint" />
            <mxPoint x="630" y="-70" as="targetPoint" />
          </mxGeometry>
        </mxCell>
        <mxCell id="ttCvUygym4jiZelkRWhz-38" value="" style="verticalLabelPosition=bottom;verticalAlign=top;html=1;shape=mxgraph.basic.arc;startAngle=0.3;endAngle=0.1;rotation=30;" parent="1" vertex="1">
          <mxGeometry x="603" y="-92" width="20" height="20" as="geometry" />
        </mxCell>
        <mxCell id="ttCvUygym4jiZelkRWhz-39" value="" style="verticalLabelPosition=bottom;verticalAlign=top;html=1;shape=mxgraph.basic.arc;startAngle=0.3;endAngle=0.1;rotation=-195;" parent="1" vertex="1">
          <mxGeometry x="660" y="-95" width="20" height="20" as="geometry" />
        </mxCell>
        <mxCell id="ttCvUygym4jiZelkRWhz-42" value="&lt;u&gt;EID&lt;/u&gt;" style="ellipse;whiteSpace=wrap;html=1;align=center;strokeWidth=2;" parent="1" vertex="1">
          <mxGeometry x="740" y="80" width="80" height="30" as="geometry" />
        </mxCell>
        <mxCell id="ttCvUygym4jiZelkRWhz-43" value="" style="endArrow=none;html=1;rounded=0;entryX=0;entryY=0.5;entryDx=0;entryDy=0;exitX=1;exitY=0.5;exitDx=0;exitDy=0;" parent="1" source="w1o4nE-uoXKEgXRbYHzc-9" target="ttCvUygym4jiZelkRWhz-42" edge="1">
          <mxGeometry relative="1" as="geometry">
            <mxPoint x="690" y="122.5" as="sourcePoint" />
            <mxPoint x="750" y="125" as="targetPoint" />
          </mxGeometry>
        </mxCell>
        <mxCell id="ttCvUygym4jiZelkRWhz-44" value="&lt;u&gt;ID&lt;/u&gt;" style="ellipse;whiteSpace=wrap;html=1;align=center;strokeWidth=2;" parent="1" vertex="1">
          <mxGeometry x="740" y="290" width="80" height="30" as="geometry" />
        </mxCell>
        <mxCell id="ttCvUygym4jiZelkRWhz-45" value="" style="endArrow=none;html=1;rounded=0;entryX=0;entryY=0.5;entryDx=0;entryDy=0;exitX=1;exitY=0.5;exitDx=0;exitDy=0;" parent="1" source="w1o4nE-uoXKEgXRbYHzc-14" target="ttCvUygym4jiZelkRWhz-44" edge="1">
          <mxGeometry relative="1" as="geometry">
            <mxPoint x="690" y="115" as="sourcePoint" />
            <mxPoint x="740" y="65" as="targetPoint" />
          </mxGeometry>
        </mxCell>
        <mxCell id="ttCvUygym4jiZelkRWhz-47" value="Area" style="ellipse;whiteSpace=wrap;html=1;align=center;strokeWidth=2;" parent="1" vertex="1">
          <mxGeometry x="240" y="320" width="80" height="30" as="geometry" />
        </mxCell>
        <mxCell id="ttCvUygym4jiZelkRWhz-48" value="Area" style="ellipse;whiteSpace=wrap;html=1;align=center;strokeWidth=2;" parent="1" vertex="1">
          <mxGeometry x="40" y="320" width="80" height="30" as="geometry" />
        </mxCell>
        <mxCell id="ttCvUygym4jiZelkRWhz-49" value="" style="endArrow=none;html=1;rounded=0;entryX=0.5;entryY=1;entryDx=0;entryDy=0;exitX=0.5;exitY=0;exitDx=0;exitDy=0;" parent="1" source="ttCvUygym4jiZelkRWhz-48" target="w1o4nE-uoXKEgXRbYHzc-2" edge="1">
          <mxGeometry relative="1" as="geometry">
            <mxPoint x="289" y="330" as="sourcePoint" />
            <mxPoint x="345" y="280" as="targetPoint" />
          </mxGeometry>
        </mxCell>
        <mxCell id="ttCvUygym4jiZelkRWhz-50" value="&lt;u&gt;ID&lt;/u&gt;" style="ellipse;whiteSpace=wrap;html=1;align=center;strokeWidth=2;" parent="1" vertex="1">
          <mxGeometry x="480" y="-40" width="80" height="30" as="geometry" />
        </mxCell>
        <mxCell id="ttCvUygym4jiZelkRWhz-51" value="Name" style="ellipse;whiteSpace=wrap;html=1;align=center;strokeWidth=2;" parent="1" vertex="1">
          <mxGeometry x="480" y="20" width="80" height="30" as="geometry" />
        </mxCell>
        <mxCell id="ttCvUygym4jiZelkRWhz-52" value="" style="endArrow=none;html=1;rounded=0;entryX=0;entryY=0.5;entryDx=0;entryDy=0;exitX=1;exitY=0.5;exitDx=0;exitDy=0;" parent="1" source="ttCvUygym4jiZelkRWhz-50" target="ttCvUygym4jiZelkRWhz-28" edge="1">
          <mxGeometry relative="1" as="geometry">
            <mxPoint x="690" y="115" as="sourcePoint" />
            <mxPoint x="740" y="65" as="targetPoint" />
          </mxGeometry>
        </mxCell>
        <mxCell id="ttCvUygym4jiZelkRWhz-55" value="" style="endArrow=none;html=1;rounded=0;entryX=0;entryY=0.5;entryDx=0;entryDy=0;exitX=1;exitY=0.5;exitDx=0;exitDy=0;" parent="1" source="ttCvUygym4jiZelkRWhz-51" target="ttCvUygym4jiZelkRWhz-28" edge="1">
          <mxGeometry relative="1" as="geometry">
            <mxPoint x="570" y="-15" as="sourcePoint" />
            <mxPoint x="633" y="5" as="targetPoint" />
          </mxGeometry>
        </mxCell>
        <mxCell id="ttCvUygym4jiZelkRWhz-56" value="&lt;u&gt;ID&lt;/u&gt;" style="ellipse;whiteSpace=wrap;html=1;align=center;strokeWidth=2;" parent="1" vertex="1">
          <mxGeometry x="140" y="-10" width="80" height="30" as="geometry" />
        </mxCell>
        <mxCell id="ttCvUygym4jiZelkRWhz-57" value="" style="endArrow=none;html=1;rounded=0;exitX=0.333;exitY=-0.053;exitDx=0;exitDy=0;exitPerimeter=0;entryX=0.5;entryY=1;entryDx=0;entryDy=0;" parent="1" source="w1o4nE-uoXKEgXRbYHzc-1" target="ttCvUygym4jiZelkRWhz-56" edge="1">
          <mxGeometry relative="1" as="geometry">
            <mxPoint x="247.98000000000002" y="100.80999999999995" as="sourcePoint" />
            <mxPoint x="270" y="25" as="targetPoint" />
          </mxGeometry>
        </mxCell>
        <mxCell id="ttCvUygym4jiZelkRWhz-58" value="" style="shape=link;html=1;rounded=0;exitX=0.5;exitY=0;exitDx=0;exitDy=0;entryX=0.422;entryY=1.04;entryDx=0;entryDy=0;entryPerimeter=0;" parent="1" source="w1o4nE-uoXKEgXRbYHzc-72" target="w1o4nE-uoXKEgXRbYHzc-1" edge="1">
          <mxGeometry relative="1" as="geometry">
            <mxPoint x="330" y="130" as="sourcePoint" />
            <mxPoint x="238" y="130" as="targetPoint" />
          </mxGeometry>
        </mxCell>
        <mxCell id="ttCvUygym4jiZelkRWhz-61" value="" style="shape=link;html=1;rounded=0;entryX=0.5;entryY=1;entryDx=0;entryDy=0;exitX=0.5;exitY=0;exitDx=0;exitDy=0;" parent="1" source="w1o4nE-uoXKEgXRbYHzc-63" target="w1o4nE-uoXKEgXRbYHzc-9" edge="1">
          <mxGeometry relative="1" as="geometry">
            <mxPoint x="330" y="220" as="sourcePoint" />
            <mxPoint x="490" y="220" as="targetPoint" />
          </mxGeometry>
        </mxCell>
        <mxCell id="ttCvUygym4jiZelkRWhz-62" value="N" style="resizable=0;html=1;align=right;verticalAlign=bottom;" parent="ttCvUygym4jiZelkRWhz-61" connectable="0" vertex="1">
          <mxGeometry x="1" relative="1" as="geometry">
            <mxPoint x="-9.99" y="19.89" as="offset" />
          </mxGeometry>
        </mxCell>
        <mxCell id="ttCvUygym4jiZelkRWhz-63" value="M" style="resizable=0;html=1;align=right;verticalAlign=bottom;" parent="1" connectable="0" vertex="1">
          <mxGeometry x="639.0015979296654" y="190.00202760446177" as="geometry">
            <mxPoint x="-8" y="76" as="offset" />
          </mxGeometry>
        </mxCell>
        <mxCell id="ttCvUygym4jiZelkRWhz-68" value="" style="shape=link;html=1;rounded=0;entryX=0.5;entryY=0;entryDx=0;entryDy=0;exitX=0.5;exitY=1;exitDx=0;exitDy=0;" parent="1" source="w1o4nE-uoXKEgXRbYHzc-74" target="w1o4nE-uoXKEgXRbYHzc-9" edge="1">
          <mxGeometry relative="1" as="geometry">
            <mxPoint x="330" y="220" as="sourcePoint" />
            <mxPoint x="670" y="100" as="targetPoint" />
          </mxGeometry>
        </mxCell>
        <mxCell id="ttCvUygym4jiZelkRWhz-69" value="N" style="resizable=0;html=1;align=right;verticalAlign=bottom;" parent="ttCvUygym4jiZelkRWhz-68" connectable="0" vertex="1">
          <mxGeometry x="1" relative="1" as="geometry">
            <mxPoint x="-4.15" y="0.47" as="offset" />
          </mxGeometry>
        </mxCell>
        <mxCell id="ttCvUygym4jiZelkRWhz-70" value="M" style="resizable=0;html=1;align=right;verticalAlign=bottom;" parent="1" connectable="0" vertex="1">
          <mxGeometry x="680.0016621906032" y="29.99605565436491" as="geometry" />
        </mxCell>
        <mxCell id="ttCvUygym4jiZelkRWhz-71" value="" style="shape=link;html=1;rounded=0;exitX=1;exitY=0.5;exitDx=0;exitDy=0;entryX=0;entryY=0.5;entryDx=0;entryDy=0;" parent="1" source="w1o4nE-uoXKEgXRbYHzc-89" target="w1o4nE-uoXKEgXRbYHzc-9" edge="1">
          <mxGeometry relative="1" as="geometry">
            <mxPoint x="330" y="220" as="sourcePoint" />
            <mxPoint x="590" y="150" as="targetPoint" />
          </mxGeometry>
        </mxCell>
        <mxCell id="ttCvUygym4jiZelkRWhz-72" value="N" style="resizable=0;html=1;align=right;verticalAlign=bottom;" parent="ttCvUygym4jiZelkRWhz-71" connectable="0" vertex="1">
          <mxGeometry x="1" relative="1" as="geometry">
            <mxPoint x="-8.52" y="0.05" as="offset" />
          </mxGeometry>
        </mxCell>
        <mxCell id="ttCvUygym4jiZelkRWhz-73" value="1" style="resizable=0;html=1;align=right;verticalAlign=bottom;" parent="1" connectable="0" vertex="1">
          <mxGeometry x="305.0025390264293" y="110.00409029100274" as="geometry" />
        </mxCell>
        <mxCell id="ttCvUygym4jiZelkRWhz-74" value="" style="shape=link;html=1;rounded=0;exitX=1;exitY=1;exitDx=0;exitDy=0;entryX=0;entryY=0.5;entryDx=0;entryDy=0;" parent="1" source="w1o4nE-uoXKEgXRbYHzc-88" target="w1o4nE-uoXKEgXRbYHzc-14" edge="1">
          <mxGeometry relative="1" as="geometry">
            <mxPoint x="500" y="145" as="sourcePoint" />
            <mxPoint x="604" y="155" as="targetPoint" />
          </mxGeometry>
        </mxCell>
        <mxCell id="ttCvUygym4jiZelkRWhz-75" value="N" style="resizable=0;html=1;align=right;verticalAlign=bottom;" parent="ttCvUygym4jiZelkRWhz-74" connectable="0" vertex="1">
          <mxGeometry x="1" relative="1" as="geometry">
            <mxPoint x="-8.969999999999999" y="-14.979999999999999" as="offset" />
          </mxGeometry>
        </mxCell>
        <mxCell id="ttCvUygym4jiZelkRWhz-76" value="1" style="resizable=0;html=1;align=right;verticalAlign=bottom;" parent="1" connectable="0" vertex="1">
          <mxGeometry x="315.0025390264293" y="130.00409029100274" as="geometry" />
        </mxCell>
        <mxCell id="ttCvUygym4jiZelkRWhz-77" value="&lt;b style=&quot;text-align: justify&quot;&gt;&lt;span style=&quot;font-size: 13.0pt ; line-height: 130%&quot;&gt;OLYMPIC FACILITIES ERR DIAGRAM&lt;/span&gt;&lt;/b&gt;" style="text;html=1;strokeColor=none;fillColor=none;align=center;verticalAlign=middle;whiteSpace=wrap;rounded=0;" parent="1" vertex="1">
          <mxGeometry x="20" y="-145" width="340" height="60" as="geometry" />
        </mxCell>
      </root>
    </mxGraphModel>
  </diagram>
</mxfile>
